<svg width="65" height="64" viewBox="0 0 65 64" fill="none" xmlns="http://www.w3.org/2000/svg">
<rect x="0.666992" width="64" height="64" rx="24" fill="#E6F0F8"/>
<path d="M44 19.25C41.0625 16.6875 37.25 15.125 33 15.125C23.6875 15.125 16.125 22.6875 16.125 32C16.125 33.75 16.375 35.375 16.875 36.9375" stroke="#0169B3" stroke-width="2.5" stroke-miterlimit="10" stroke-linecap="round"/>
<path d="M21.875 44.625C24.875 47.25 28.75 48.875 33 48.875C42.3125 48.875 49.875 41.3125 49.875 32C49.875 30 49.5 28.125 48.875 26.3125" stroke="#0169B3" stroke-width="2.5" stroke-miterlimit="10" stroke-linecap="round"/>
<path d="M44.6875 15.125V20.3125H39.5" stroke="#0169B3" stroke-width="2.5" stroke-miterlimit="10" stroke-linecap="round"/>
<path d="M21.3125 48.875V43.6875H26.5" stroke="#0169B3" stroke-width="2.5" stroke-miterlimit="10" stroke-linecap="round"/>
<path d="M22.4375 35.1875H25.75C26.0625 35.1875 26.3125 35.25 26.5 35.375C26.6875 35.5 26.75 35.6875 26.75 35.9375C26.75 36.125 26.6875 36.3125 26.5625 36.4375C26.4375 36.5625 26.25 36.625 25.9375 36.625H21.3125C21 36.625 20.75 36.5625 20.5625 36.375C20.375 36.1875 20.3125 36 20.3125 35.75C20.3125 35.625 20.375 35.375 20.5 35.125C20.625 34.875 20.75 34.6875 20.875 34.5625C21.4375 34 21.9375 33.5 22.375 33.0625C22.8125 32.625 23.125 32.375 23.375 32.25C23.75 32 24 31.75 24.25 31.5C24.5 31.25 24.625 31 24.75 30.75C24.875 30.5 24.9375 30.25 24.9375 30C24.9375 29.75 24.875 29.5 24.75 29.25C24.625 29.0625 24.4375 28.875 24.25 28.75C24 28.625 23.8125 28.5625 23.5 28.5625C22.9375 28.5625 22.5 28.8125 22.1875 29.3125C22.125 29.375 22.0625 29.5625 22 29.8125C21.875 30.125 21.8125 30.3125 21.6875 30.4375C21.5625 30.5625 21.25 30.75 21 30.75C20.8125 30.75 20.625 30.6875 20.5 30.5625C20.375 30.4375 20.3125 30.25 20.3125 30C20.3125 29.6875 20.375 29.375 20.5 29.0625C20.625 28.75 20.8125 28.4375 21.0625 28.1875C21.3125 27.9375 21.625 27.75 22.0625 27.5625C22.4375 27.375 22.9375 27.3125 23.4375 27.3125C24.0625 27.3125 24.625 27.4375 25.0625 27.625C25.375 27.75 25.625 27.9375 25.8125 28.1875C26 28.4375 26.1875 28.6875 26.3125 29C26.4375 29.3125 26.5 29.625 26.5 29.9375C26.5 30.4375 26.375 30.9375 26.125 31.375C25.875 31.8125 25.625 32.125 25.3125 32.375C25 32.625 24.5625 33 23.9375 33.5C23.3125 34 22.875 34.4375 22.625 34.6875C22.6875 34.875 22.5625 35 22.4375 35.1875Z" fill="#0769B1"/>
<path d="M31.125 35.875V34.6875H27.9375C27.5625 34.6875 27.25 34.625 27.0625 34.4375C26.875 34.25 26.75 34 26.75 33.6875C26.75 33.625 26.75 33.5 26.8125 33.4375C26.8125 33.375 26.875 33.25 26.9375 33.1875C27 33.125 27.0625 33 27.125 32.9375C27.1875 32.875 27.25 32.75 27.375 32.625L30.75 28.125C31 27.8125 31.125 27.625 31.3125 27.5C31.4375 27.375 31.625 27.3125 31.8125 27.3125C32.4375 27.3125 32.75 27.6875 32.75 28.4375V33.25H33C33.3125 33.25 33.5625 33.3125 33.75 33.375C33.9375 33.4375 34.0625 33.6875 34.0625 33.9375C34.0625 34.1875 34 34.375 33.8125 34.5C33.625 34.625 33.4375 34.6875 33.0625 34.6875H32.6875V35.875C32.6875 36.1875 32.625 36.4375 32.5 36.625C32.375 36.8125 32.1875 36.875 31.9375 36.875C31.6875 36.875 31.5 36.8125 31.375 36.625C31.1875 36.375 31.125 36.1875 31.125 35.875ZM28.4375 33.25H31.125V29.5625L28.4375 33.25Z" fill="#0769B1"/>
<path d="M38.25 28.5L36.5 35.8125C36.4375 36.0625 36.375 36.25 36.3125 36.375C36.25 36.5 36.1875 36.625 36.125 36.6875C36.0625 36.75 35.875 36.8125 35.75 36.8125C35.3125 36.8125 35.125 36.625 35.125 36.25C35.125 36.125 35.1875 35.9375 35.25 35.5L37 28.25C37.0625 27.875 37.1875 27.625 37.25 27.4375C37.3125 27.25 37.5 27.25 37.75 27.25C37.9375 27.25 38.125 27.3125 38.25 27.375C38.375 27.5 38.4375 27.625 38.4375 27.8125C38.4375 27.9375 38.375 28.1875 38.25 28.5Z" fill="#0769B1"/>
<path d="M41.375 27.4373H45.5625C45.9375 27.4373 46.25 27.4998 46.4375 27.6248C46.625 27.7498 46.6875 27.9373 46.6875 28.2498C46.6875 28.4373 46.5625 28.6873 46.375 28.9373C46.1875 29.2498 45.9375 29.5623 45.625 29.8748C45.375 30.2498 45.0625 30.6873 44.8125 31.1873C44.5 31.6873 44.25 32.3748 44 33.1248C43.875 33.4373 43.8125 33.7498 43.8125 33.9373C43.8125 34.1248 43.75 34.4373 43.6875 34.8123C43.625 35.1873 43.5625 35.4373 43.5625 35.6248C43.5 36.0623 43.375 36.3748 43.1875 36.4998C43 36.6873 42.8125 36.7498 42.5625 36.7498C42.3125 36.7498 42.125 36.6873 41.9375 36.4998C41.75 36.3748 41.6875 36.1248 41.6875 35.7498C41.6875 35.4998 41.75 35.1248 41.875 34.6248C42 34.1873 42.1875 33.6248 42.4375 32.9373C42.6875 32.3123 43 31.6248 43.375 30.9373C43.75 30.2498 44.25 29.5623 44.75 28.8748H41.375C41 28.8748 40.75 28.8123 40.5625 28.6873C40.375 28.5623 40.3125 28.3748 40.3125 28.0623C40.3125 27.7498 40.375 27.5623 40.5625 27.4998C40.8125 27.4998 41.0625 27.4373 41.375 27.4373Z" fill="#0769B1"/>
</svg>
