<svg width="71" height="23" viewBox="0 0 71 23" fill="none" xmlns="http://www.w3.org/2000/svg">
<g clip-path="url(#clip0_2_1378)">
<path d="M0.0244143 19.172C0.0374995 19.1553 0.0600909 19.1523 0.0623014 19.1441C0.156121 18.7949 0.35914 18.5121 0.617568 18.2629C0.783853 18.1026 0.972952 17.9716 1.17155 17.8532C1.18772 17.8436 1.20773 17.8401 1.2355 17.8305C1.24326 17.864 1.25351 17.8897 1.25461 17.9158C1.26534 18.1703 1.35865 18.3987 1.49317 18.6105C1.75457 19.0222 2.11561 19.3349 2.5367 19.5816C2.75973 19.7122 2.98714 19.8369 3.21936 19.951C3.49939 20.0886 3.79173 20.2001 4.09475 20.2797C4.36891 20.3516 4.64411 20.4217 4.92201 20.4774C5.08875 20.5108 5.2614 20.5279 5.43167 20.5299C5.80346 20.5343 6.17623 20.5375 6.54702 20.5156C6.80128 20.5005 7.05559 20.4543 7.30507 20.4006C7.72161 20.3108 8.09492 20.1248 8.40266 19.834C8.67107 19.5805 8.86026 19.2751 8.92459 18.9078C8.96865 18.6562 8.93456 18.4125 8.85017 18.1708C8.76642 17.9308 8.63468 17.7271 8.44106 17.5599C8.31341 17.4497 8.16235 17.3866 8.00571 17.3263C7.80367 17.2485 7.59771 17.191 7.38444 17.1571C7.20852 17.129 7.03203 17.1045 6.8557 17.079C6.65769 17.0503 6.45672 17.0551 6.25901 17.0364C6.04236 17.0159 5.82732 17.0236 5.61171 17.0194C5.22745 17.0119 4.84292 17.0155 4.45879 17.0049C4.17406 16.997 3.88963 16.9759 3.60534 16.9567C3.43891 16.9455 3.27205 16.9332 3.1071 16.9097C2.83421 16.871 2.56141 16.8292 2.29107 16.7764C2.11655 16.7423 1.94513 16.6906 1.7747 16.6393C1.4832 16.5514 1.26169 16.3687 1.08643 16.1292C0.927723 15.9124 0.826838 15.6678 0.760527 15.4118C0.710363 15.2182 0.687731 15.0171 0.710437 14.8172C0.751322 14.4571 0.891347 14.1373 1.12896 13.8567C1.3663 13.5765 1.66042 13.372 1.98587 13.2039C2.2311 13.0773 2.48703 12.9799 2.75036 12.8952C2.94423 12.8328 3.1399 12.7835 3.33872 12.7426C3.35247 12.7398 3.36423 12.7277 3.39751 12.7073C3.29705 12.685 3.21688 12.6683 3.13724 12.6495C2.59455 12.5207 2.08468 12.3183 1.62638 12.0006C1.25841 11.7455 0.966894 11.4225 0.744317 11.0397C0.578591 10.7547 0.466917 10.4495 0.39558 10.1288C0.353096 9.93776 0.331362 9.74543 0.309688 9.55142C0.286543 9.34423 0.262116 9.13765 0.275895 8.93061C0.299406 8.57734 0.332831 8.22523 0.430226 7.88096C0.507836 7.60663 0.608736 7.34264 0.743133 7.09127C0.954417 6.69609 1.2273 6.34721 1.56096 6.04213C1.88534 5.74555 2.25015 5.50728 2.64332 5.31214C2.96889 5.15055 3.30844 5.0188 3.66354 4.93008C3.85653 4.88186 4.04849 4.8288 4.24313 4.7881C4.39401 4.75655 4.54802 4.7385 4.7012 4.71861C4.87411 4.69617 5.04751 4.67703 5.22099 4.65918C5.2981 4.65124 5.37592 4.64676 5.45345 4.64627C5.69895 4.64471 5.94493 4.63659 6.18986 4.64835C6.44515 4.6606 6.70044 4.6856 6.95387 4.71876C7.18769 4.74935 7.42072 4.79068 7.65102 4.84085C7.92893 4.90141 8.20188 4.98204 8.46459 5.09154C8.67398 5.17881 8.88857 5.25721 9.08874 5.36183C9.3935 5.5211 9.67935 5.71098 9.94753 5.92663C10.2804 6.19428 10.5714 6.50046 10.8129 6.84724C11.0964 7.25439 11.3076 7.69699 11.4213 8.18128C11.4851 8.45343 11.5361 8.72655 11.5456 9.00641C11.549 9.10911 11.5689 9.21174 11.5665 9.31406C11.5626 9.4729 11.5558 9.63282 11.5327 9.78979C11.4933 10.0577 11.4341 10.3225 11.3324 10.5753C11.1796 10.9549 10.9694 11.3003 10.6954 11.6098C10.4782 11.8551 10.2343 12.0691 9.96338 12.2542C9.73039 12.4134 9.48837 12.5562 9.22811 12.6713C8.91217 12.8111 8.58663 12.921 8.25162 13.0034C7.97933 13.0704 7.70265 13.114 7.42294 13.1464C7.0194 13.193 6.61665 13.1794 6.21294 13.1706C6.16644 13.1696 6.11564 13.1855 6.07321 13.2062C5.81457 13.3321 5.55289 13.4532 5.30195 13.5927C5.10822 13.7003 4.92492 13.8287 4.79178 14.0107C4.73013 14.0949 4.67109 14.1819 4.66458 14.2907C4.65761 14.4071 4.70647 14.4946 4.80091 14.5661C4.94226 14.6731 5.10708 14.6893 5.27441 14.6941C5.65812 14.7049 6.04193 14.7135 6.42576 14.7191C6.86327 14.7255 7.30109 14.7203 7.7383 14.7344C7.99748 14.7427 8.25582 14.7777 8.51438 14.8023C8.61951 14.8123 8.72416 14.8272 8.82915 14.8387C9.19021 14.8785 9.54371 14.9584 9.88367 15.0787C10.1991 15.1903 10.5012 15.3343 10.7789 15.5264C11.0195 15.6928 11.2462 15.8748 11.4439 16.0857C11.6755 16.3328 11.8726 16.6063 12.0164 16.9153C12.1541 17.211 12.2476 17.5172 12.3076 17.8365C12.3684 18.1604 12.3752 18.4852 12.3747 18.813C12.3742 19.1061 12.3294 19.3913 12.2649 19.6747C12.2083 19.9234 12.1203 20.1618 12.0075 20.3921C11.7822 20.8518 11.4624 21.2417 11.0825 21.5838C10.8974 21.7505 10.6944 21.8975 10.4795 22.0298C10.2478 22.1726 10.0049 22.2911 9.75688 22.4009C9.62818 22.4579 9.49408 22.5038 9.36054 22.5494C9.21088 22.6006 9.06021 22.6495 8.90803 22.6928C8.5917 22.7827 8.26989 22.8461 7.94402 22.896C7.71487 22.9311 7.48648 22.9632 7.25517 22.9782C7.22201 22.9803 7.19029 23.0039 7.16387 23.0269C6.48179 23.0362 5.79375 23.0362 5.09264 23.0272C5.02501 23.0045 4.97119 22.9851 4.91574 22.978C4.67083 22.9465 4.42355 22.9289 4.18072 22.8866C3.88927 22.8357 3.59939 22.7726 3.31263 22.7004C2.97798 22.6161 2.65435 22.4977 2.33795 22.3604C2.03272 22.228 1.73978 22.0743 1.46407 21.8898C1.14997 21.6797 0.855882 21.4467 0.614164 21.156C0.470427 20.9831 0.330265 20.807 0.237446 20.6015C0.175391 20.4641 0.123792 20.3222 0.065355 20.1832C0.0591173 20.1684 0.0384092 20.1594 0.0244141 20.1477C0.0244142 19.8262 0.0244142 19.5047 0.0244143 19.172ZM8.24605 9.05931C8.22472 8.91433 8.19784 8.76988 8.18341 8.62425C8.16381 8.42639 8.09159 8.24601 8.00223 8.07214C7.72683 7.53633 7.3056 7.15967 6.72596 6.95539C6.59813 6.91034 6.46705 6.88885 6.33551 6.86194C6.12393 6.81866 5.91198 6.82479 5.70257 6.85145C5.51912 6.87481 5.34012 6.92138 5.16467 6.99214C4.94032 7.08264 4.73633 7.19947 4.55262 7.3498C4.30958 7.54868 4.12094 7.78956 3.98149 8.07125C3.85377 8.32922 3.78238 8.6003 3.75562 8.88158C3.73402 9.10855 3.76365 9.33412 3.82003 9.55751C3.89495 9.85435 4.00394 10.1313 4.20761 10.3691C4.49895 10.7093 4.84736 10.9696 5.27748 11.115C5.4113 11.1602 5.5511 11.1996 5.6911 11.2138C5.97885 11.243 6.2648 11.2392 6.55006 11.1594C6.70032 11.1173 6.84358 11.0635 6.9814 10.9984C7.34923 10.8247 7.64357 10.5643 7.8655 10.2281C8.02161 9.99168 8.13897 9.73896 8.18154 9.45689C8.2005 9.33127 8.22415 9.20632 8.24605 9.05931Z" fill="#0F75BC"/>
<path d="M71.0373 16.9598C70.9524 17.0068 70.8709 17.06 70.7821 17.0771C70.5498 17.1217 70.3161 17.1259 70.0781 17.0972C69.8209 17.0661 69.5737 17.0062 69.3313 16.923C68.9741 16.8004 68.6474 16.6232 68.3621 16.3776C68.2589 16.2888 68.162 16.1927 68.0484 16.0872C67.9444 16.1474 67.8334 16.211 67.7231 16.2758C67.4719 16.4234 67.225 16.5787 66.9688 16.7175C66.7338 16.8448 66.4941 16.9663 66.247 17.0683C66.0341 17.1563 65.8103 17.2221 65.587 17.2819C65.2449 17.3736 64.8968 17.4313 64.5395 17.4299C64.3443 17.4291 64.1488 17.4541 63.9538 17.4498C63.6977 17.4443 63.4389 17.4401 63.1866 17.4018C62.7532 17.3359 62.3215 17.2532 61.912 17.0893C61.5218 16.9332 61.1593 16.7364 60.8389 16.4603C60.4726 16.1447 60.2103 15.7644 60.0312 15.3258C59.9787 15.197 59.9463 15.0595 59.9132 14.924C59.8764 14.7736 59.844 14.6217 59.82 14.4688C59.801 14.3467 59.7887 14.2221 59.7891 14.0987C59.7896 13.8987 59.7939 13.698 59.8126 13.499C59.8546 13.0524 60.0167 12.6479 60.2867 12.2859C60.4834 12.0222 60.7258 11.8079 60.9983 11.6179C61.2699 11.4285 61.564 11.2834 61.8678 11.1629C62.1529 11.0498 62.4553 10.9769 62.7531 10.897C62.9608 10.8413 63.1729 10.8003 63.3844 10.7595C63.5161 10.734 63.6505 10.7225 63.7833 10.7022C64.0006 10.6689 64.2194 10.654 64.4384 10.637C64.6853 10.6178 64.9305 10.578 65.1762 10.5461C65.4224 10.5141 65.6702 10.49 65.914 10.4455C66.2096 10.3916 66.5035 10.3264 66.7948 10.2537C66.9952 10.2036 67.1924 10.1389 67.3866 10.0689C67.5666 10.004 67.735 9.91395 67.8813 9.78895C68.0016 9.68612 68.065 9.5609 68.0637 9.40026C68.0617 9.16386 68.0391 8.93012 67.9878 8.69966C67.9213 8.40109 67.782 8.13679 67.5651 7.9176C67.4226 7.77356 67.254 7.66015 67.0638 7.58102C66.7728 7.45998 66.4707 7.39351 66.1548 7.36204C65.8175 7.32845 65.4808 7.29838 65.1426 7.31045C64.8993 7.31914 64.6573 7.35808 64.414 7.37182C64.156 7.3864 63.9063 7.44654 63.6585 7.50551C63.2154 7.6109 62.7859 7.75773 62.383 7.9738C62.0449 8.1551 61.7349 8.37173 61.4666 8.64259C61.2626 8.84856 61.0841 9.07525 60.9539 9.33395C60.879 9.48251 60.815 9.63627 60.74 9.80106C60.6944 9.77287 60.6438 9.74867 60.6017 9.71434C60.4019 9.55111 60.2408 9.35846 60.1374 9.12149C60.0434 8.90591 59.9862 8.68338 59.9921 8.44779C59.9962 8.28378 59.9907 8.11819 60.0124 7.95625C60.0453 7.71053 60.131 7.47851 60.237 7.25253C60.4338 6.83316 60.7786 6.56294 61.1668 6.32897C61.5466 6.10006 61.9446 5.90833 62.3569 5.74488C62.6814 5.6162 63.0125 5.50403 63.3536 5.4243C63.6338 5.3588 63.9141 5.29217 64.1966 5.23771C64.364 5.20545 64.5357 5.19319 64.7059 5.17678C64.8759 5.16039 65.0464 5.14288 65.217 5.13869C65.4782 5.13228 65.7397 5.13677 66.001 5.13698C66.0214 5.137 66.0418 5.14131 66.0621 5.14107C66.2828 5.13838 66.4978 5.18559 66.7156 5.20862C67.0368 5.24261 67.3487 5.31895 67.6598 5.3968C67.8678 5.44886 68.0681 5.52989 68.2729 5.59479C68.5409 5.67971 68.7925 5.80075 69.0404 5.9289C69.4492 6.14022 69.8224 6.4002 70.138 6.73375C70.4433 7.05647 70.659 7.42651 70.7298 7.86642C70.7513 7.99969 70.762 8.13604 70.7621 8.27099C70.7639 10.8261 70.7638 13.3812 70.7629 15.9363C70.7628 16.2166 70.8294 16.4816 70.9398 16.7372C70.9561 16.7751 70.994 16.8039 71.0296 16.8313C71.0373 16.8669 71.0373 16.9082 71.0373 16.9598ZM63.886 15.3794C64.0636 15.4203 64.2392 15.4808 64.4192 15.4981C64.7641 15.5312 65.1098 15.5264 65.4565 15.4831C65.7199 15.4502 65.979 15.4034 66.2369 15.345C66.6337 15.255 66.9618 15.0534 67.2417 14.7663C67.5809 14.4182 67.7781 13.9995 67.8901 13.5379C67.9163 13.4303 67.9362 13.3184 67.9372 13.2084C67.9418 12.659 67.9393 12.1096 67.9386 11.5602C67.9386 11.5303 67.9325 11.5004 67.9282 11.4605C67.843 11.5073 67.7684 11.546 67.696 11.5883C67.3024 11.8183 66.8743 11.9511 66.4247 12.0234C66.0756 12.0797 65.7261 12.1338 65.3772 12.1913C65.1654 12.2262 64.9546 12.2665 64.7432 12.3032C64.5638 12.3345 64.3851 12.3732 64.2044 12.3924C63.9593 12.4184 63.7406 12.5057 63.535 12.632C63.2869 12.7845 63.1287 13.0117 63.0203 13.2692C62.9494 13.4377 62.9096 13.6171 62.9111 13.8053C62.9128 14.0064 62.9302 14.2026 62.9947 14.3942C63.0836 14.6587 63.2033 14.9041 63.4193 15.0946C63.5531 15.2127 63.7091 15.2951 63.886 15.3794Z" fill="#5B727D"/>
<path d="M54.2051 0.012207C54.229 0.027778 54.2401 0.0557341 54.2539 0.0570468C54.4377 0.0745395 54.6136 0.125003 54.7864 0.183462C55.1634 0.311032 55.5081 0.490842 55.7925 0.774568C55.9563 0.937935 56.0808 1.11812 56.1338 1.34183C56.1484 1.40339 56.1593 1.46745 56.1594 1.53038C56.1609 2.56541 56.1605 3.60045 56.1605 4.63549C56.1605 4.68687 56.1605 4.73826 56.1605 4.80024C56.2115 4.80465 56.2507 4.81096 56.2898 4.81099C57.096 4.81154 57.9022 4.81472 58.7084 4.80869C58.882 4.80739 59.057 4.78096 59.2281 4.74928C59.3167 4.73288 59.3982 4.67962 59.4882 4.64074C59.4938 4.65062 59.5059 4.66306 59.5082 4.67705C59.5518 4.94069 59.6154 5.203 59.5872 5.47291C59.5498 5.8321 59.4737 6.18118 59.2822 6.49644C59.1832 6.65934 59.0642 6.80543 58.9024 6.91351C58.7824 6.99367 58.655 7.04389 58.5042 7.04319C57.7758 7.03983 57.0474 7.04168 56.3189 7.04167C56.2712 7.04167 56.2234 7.04167 56.1605 7.04167C56.1605 7.09976 56.1605 7.14278 56.1605 7.1858C56.1605 10.335 56.1599 13.4843 56.1626 16.6335C56.1628 16.7838 56.1838 16.9358 56.213 17.0837C56.233 17.185 56.2985 17.2704 56.4019 17.3259C56.384 17.3393 56.376 17.3503 56.3666 17.3516C56.1089 17.3893 55.8507 17.4182 55.5893 17.4178C55.4718 17.4177 55.354 17.4425 55.2369 17.4385C54.952 17.4288 54.6646 17.428 54.3835 17.3879C54.0709 17.3433 53.759 17.271 53.4839 17.1059C53.3568 17.0295 53.2272 16.9469 53.1257 16.842C52.9563 16.6671 52.835 16.4674 52.8352 16.2058C52.8383 11.2473 52.8385 6.28871 52.8352 1.33017C52.8349 1.01579 52.8109 0.699864 52.6995 0.398991C52.6789 0.343365 52.6505 0.290419 52.6243 0.236933C52.6072 0.202186 52.5874 0.168706 52.5625 0.122926C52.6816 0.100697 52.7882 0.0818273 52.8941 0.0603306C52.92 0.0550731 52.9441 0.0412102 52.9667 0.0217553C53.3741 0.0122068 53.7838 0.0122068 54.2051 0.012207Z" fill="#5B727D"/>
<path d="M45.789 6.83037C45.5021 7.11503 45.2234 7.39577 44.9415 7.6733C44.4841 8.12358 44.0247 8.5719 43.5658 9.02077C43.2652 9.31487 42.9637 9.60814 42.6634 9.90264C42.6152 9.94994 42.5716 10.0017 42.5197 10.058C42.6209 10.1587 42.7145 10.2529 42.8094 10.3459C43.3626 10.888 43.916 11.4297 44.4693 11.9716C44.8889 12.3827 45.3088 12.7935 45.7279 13.2051C46.0622 13.5335 46.3969 13.8617 46.7286 14.1927C46.888 14.3519 47.0485 14.5111 47.1947 14.6817C47.3509 14.864 47.4675 15.078 47.5026 15.3118C47.5601 15.6952 47.5156 16.0665 47.2835 16.4023C47.1441 16.604 46.9975 16.7971 46.8144 16.962C46.5443 17.2052 46.2453 17.4093 45.9278 17.5881C45.9009 17.6033 45.871 17.6134 45.838 17.6278C45.8002 17.5421 45.7714 17.4638 45.7325 17.3907C45.5821 17.1084 45.3702 16.8722 45.1427 16.6487C44.7217 16.2352 44.2997 15.8227 43.8777 15.4103C43.5892 15.1284 43.2992 14.8479 43.011 14.5656C42.8151 14.3736 42.6215 14.1795 42.4266 13.9865C42.1941 13.7563 41.961 13.5265 41.7287 13.2961C41.4369 13.0068 41.1463 12.7164 40.8537 12.4279C40.7315 12.3075 40.6054 12.1908 40.4726 12.0642C40.4388 12.0932 40.4012 12.122 40.3677 12.1547C40.1939 12.3242 40.0244 12.498 39.8464 12.6631C39.7775 12.7271 39.7556 12.7941 39.757 12.8839C39.7616 13.1806 39.7587 13.4775 39.7587 13.7744C39.7587 14.8334 39.7588 15.8924 39.7586 16.9514C39.7586 17.0805 39.7768 17.2074 39.8314 17.3244C39.8639 17.3943 39.9164 17.4552 39.9627 17.5242C39.863 17.5767 39.7473 17.5702 39.6364 17.5858C39.2787 17.6362 38.9188 17.6164 38.5596 17.621C38.1642 17.626 37.7811 17.5632 37.4061 17.4399C37.1387 17.3519 36.9009 17.222 36.7058 17.0206C36.5746 16.8851 36.4837 16.7259 36.4287 16.5482C36.4149 16.5036 36.4198 16.4529 36.4197 16.405C36.4194 13.4807 36.4194 10.5564 36.4194 7.63207C36.4194 5.54213 36.4177 3.45219 36.4217 1.36226C36.4222 1.10785 36.3924 0.859239 36.3293 0.6153C36.2971 0.490552 36.2311 0.374175 36.1777 0.247697C36.2701 0.190458 36.3863 0.185997 36.4958 0.166596C36.7366 0.12392 36.9804 0.107275 37.2256 0.110185C37.5407 0.113924 37.852 0.142419 38.1538 0.236174C38.3472 0.296257 38.5503 0.339168 38.7296 0.427727C39.0878 0.604708 39.4151 0.828227 39.6202 1.18285C39.7034 1.32689 39.7575 1.48121 39.7584 1.64963C39.7587 1.69777 39.7587 1.7459 39.7587 1.79404C39.7587 4.36935 39.7587 6.94467 39.7587 9.51998C39.7587 9.56772 39.7587 9.61547 39.7587 9.68006C39.7935 9.65769 39.8186 9.64693 39.8366 9.6292C40.213 9.2582 40.5879 8.88575 40.9645 8.51496C41.3352 8.15005 41.7083 7.78764 42.0784 7.42226C42.3109 7.19275 42.538 6.95796 42.7709 6.72881C43.0818 6.42285 43.3964 6.12048 43.7085 5.81578C43.963 5.56746 44.2173 5.31897 44.4697 5.06871C44.6594 4.88063 44.8822 4.74379 45.1352 4.65671C45.2229 4.62654 45.3175 4.60928 45.4103 4.60124C45.7643 4.57057 46.1013 4.63006 46.4159 4.79793C46.8003 5.00303 47.0893 5.30705 47.34 5.65098C47.3491 5.66354 47.3522 5.68035 47.3596 5.69887C47.3447 5.70703 47.3316 5.71973 47.3173 5.72129C46.9377 5.76244 46.6605 5.98237 46.401 6.22936C46.1959 6.42453 45.9973 6.62621 45.789 6.83037Z" fill="#5B727D"/>
<path d="M12.9794 9.66253C12.7845 9.5184 12.6683 9.32706 12.5701 9.12363C12.4115 8.79528 12.3997 8.44349 12.4242 8.09231C12.4471 7.76393 12.5544 7.45443 12.7144 7.16437C12.8597 6.90118 13.0605 6.69151 13.3116 6.5166C13.7325 6.2234 14.1855 5.99288 14.6595 5.79884C14.8547 5.71895 15.0516 5.64122 15.2524 5.5768C15.5373 5.48542 15.8225 5.39345 16.1193 5.34188C16.2909 5.31208 16.4595 5.26561 16.6311 5.23618C16.7874 5.20938 16.9462 5.19675 17.1036 5.17558C17.5009 5.12212 17.9007 5.12117 18.3002 5.12913C18.4785 5.13268 18.6564 5.15735 18.8344 5.17415C18.9477 5.18484 19.0617 5.19281 19.1735 5.21237C19.3889 5.25007 19.6038 5.29187 19.8175 5.33817C19.984 5.37425 20.1503 5.41382 20.3135 5.46209C20.8928 5.63341 21.4428 5.87064 21.943 6.2065C22.3357 6.4702 22.6808 6.78461 22.9181 7.197C23.0631 7.44896 23.1639 7.71584 23.1762 8.00924C23.1831 8.17643 23.1988 8.34355 23.1989 8.5107C23.2004 11.0018 23.1994 13.493 23.2008 15.9841C23.2009 16.2248 23.2436 16.4599 23.3434 16.6815C23.369 16.7384 23.4108 16.7886 23.4473 16.8404C23.4698 16.8724 23.4963 16.9016 23.5295 16.9425C23.4909 16.9651 23.4622 16.9857 23.4304 16.9998C23.2545 17.0784 23.0694 17.1201 22.876 17.1136C22.7095 17.1079 22.5412 17.1065 22.3777 17.0799C22.2027 17.0515 22.0322 16.9965 21.86 16.9521C21.6376 16.8947 21.4317 16.7982 21.2374 16.6807C21.0891 16.5911 20.9453 16.4928 20.8086 16.3871C20.6944 16.2989 20.5933 16.1944 20.4776 16.0891C20.3188 16.1824 20.153 16.282 19.9849 16.3778C19.6792 16.5522 19.3782 16.7361 19.0638 16.8942C18.746 17.0541 18.4128 17.18 18.0642 17.2693C17.7046 17.3614 17.3439 17.426 16.9715 17.4287C16.7968 17.43 16.6219 17.4537 16.4476 17.4492C16.1711 17.4421 15.8916 17.4407 15.6196 17.3981C15.3406 17.3544 15.0561 17.3246 14.7868 17.2286C14.5616 17.1483 14.3308 17.0817 14.1099 16.9915C13.8807 16.8979 13.6681 16.7702 13.469 16.6233C13.1703 16.4029 12.9158 16.1414 12.7209 15.8277C12.5278 15.5168 12.3933 15.1837 12.318 14.8252C12.2686 14.5897 12.2331 14.3548 12.2311 14.1145C12.2306 14.0554 12.2073 13.9961 12.2091 13.9374C12.2233 13.4764 12.2834 13.022 12.5062 12.6085C12.6664 12.3112 12.8823 12.0519 13.1429 11.8291C13.428 11.5853 13.7498 11.3977 14.0916 11.2477C14.4927 11.0717 14.9111 10.9399 15.3431 10.8532C15.51 10.8196 15.675 10.7765 15.8426 10.747C15.9745 10.7237 16.1091 10.7147 16.2425 10.6993C16.4801 10.6717 16.7175 10.6424 16.9553 10.6169C17.1334 10.5978 17.3127 10.5882 17.4903 10.566C17.7359 10.5353 17.9807 10.4985 18.2253 10.4607C18.3897 10.4353 18.5533 10.4048 18.7169 10.3743C19.121 10.2989 19.5186 10.1977 19.8957 10.0358C20.0728 9.95974 20.2505 9.87506 20.377 9.71922C20.4524 9.62623 20.4997 9.52905 20.5019 9.40418C20.5056 9.19913 20.4658 9.00119 20.4372 8.80024C20.4043 8.56887 20.3143 8.36027 20.1949 8.16654C20.008 7.86329 19.7284 7.65995 19.391 7.53794C19.1351 7.44541 18.8708 7.39075 18.5975 7.36082C18.2361 7.32124 17.8751 7.29682 17.5125 7.30791C17.3305 7.31348 17.1494 7.34401 16.9677 7.36197C16.8865 7.37 16.8033 7.36695 16.7238 7.38262C16.4415 7.43823 16.1594 7.49574 15.879 7.56007C15.5732 7.63025 15.2825 7.746 15.0005 7.87847C14.68 8.02901 14.3824 8.21528 14.1113 8.44506C13.8746 8.64559 13.6657 8.86751 13.5071 9.12909C13.3791 9.34011 13.2762 9.56576 13.159 9.79099C13.1019 9.76266 13.0326 9.73211 12.9794 9.66253ZM17.6305 12.2195C17.5462 12.2322 17.4616 12.2428 17.3779 12.258C17.1398 12.3009 16.9032 12.3541 16.6637 12.3869C16.5046 12.4087 16.3538 12.4477 16.2051 12.5046C15.9466 12.6037 15.7427 12.774 15.5967 12.9969C15.4051 13.2894 15.3143 13.6125 15.347 13.9687C15.3715 14.235 15.442 14.4818 15.5636 14.7198C15.6766 14.9407 15.8382 15.114 16.0498 15.2432C16.2917 15.3909 16.5608 15.4718 16.8406 15.4975C17.0919 15.5205 17.3465 15.5103 17.5996 15.5125C17.6647 15.513 17.7307 15.5096 17.7949 15.4996C18.0067 15.4664 18.2178 15.4289 18.4293 15.3938C18.7445 15.3415 19.0395 15.2448 19.3094 15.0675C19.604 14.8739 19.8258 14.6199 20.0068 14.3283C20.1379 14.1168 20.2322 13.8881 20.2916 13.647C20.3363 13.4652 20.3765 13.2823 20.3765 13.0938C20.3768 12.5887 20.3766 12.0836 20.3765 11.5784C20.3765 11.5398 20.3765 11.5011 20.3765 11.4454C20.3364 11.4677 20.3128 11.4803 20.2896 11.4938C19.9749 11.6779 19.6522 11.8457 19.2916 11.9269C19.067 11.9774 18.8405 12.0199 18.614 12.0621C18.486 12.0859 18.3564 12.1014 18.2276 12.121C18.0351 12.1503 17.8426 12.18 17.6305 12.2195Z" fill="#0F75BB"/>
<path d="M48.3933 13.5037C48.3933 10.9965 48.3936 8.50131 48.393 6.00613C48.393 5.71684 48.3571 5.43232 48.2478 5.16121C48.22 5.0923 48.1776 5.02904 48.1328 4.9463C48.2977 4.91662 48.4508 4.88266 48.6057 4.86248C48.9636 4.81589 49.323 4.81448 49.6812 4.85628C49.935 4.8859 50.1821 4.94544 50.4232 5.03336C50.7625 5.15709 51.0739 5.32258 51.3358 5.57038C51.5431 5.76658 51.6829 6.00052 51.7353 6.28025C51.7448 6.33087 51.7406 6.38418 51.7406 6.43625C51.7408 9.8581 51.7406 13.2799 51.7415 16.7018C51.7416 16.7975 51.7449 16.8946 51.7613 16.9887C51.7847 17.1227 51.8249 17.2527 51.9471 17.3547C51.8466 17.3712 51.7468 17.3947 51.6457 17.4028C51.4748 17.4165 51.3032 17.4207 51.1319 17.4283C50.9449 17.4366 50.7576 17.4537 50.5708 17.4496C50.3596 17.445 50.1452 17.4395 49.9386 17.401C49.656 17.3484 49.3749 17.2815 49.1138 17.1513C48.8752 17.0323 48.6773 16.8701 48.5364 16.6493C48.4457 16.5072 48.389 16.3536 48.3903 16.1754C48.3969 15.2889 48.3933 14.4023 48.3933 13.5037Z" fill="#5B727D"/>
<path d="M28.1837 9.13167C28.3108 9.18473 28.4352 9.24597 28.5658 9.28903C28.7927 9.36386 29.0216 9.43477 29.2532 9.49398C29.5717 9.57538 29.8976 9.62015 30.2229 9.66928C30.5515 9.71891 30.8774 9.7878 31.2019 9.85964C31.4749 9.92008 31.7468 9.98845 32.0143 10.0688C32.2667 10.1447 32.5149 10.2351 32.7609 10.3293C33.0868 10.4542 33.4018 10.6031 33.7042 10.7765C34.149 11.0314 34.5543 11.335 34.8741 11.7342C35.0399 11.9411 35.1753 12.1682 35.2708 12.4182C35.36 12.6517 35.4341 12.8856 35.4377 13.1374C35.4387 13.2046 35.4588 13.2716 35.4596 13.3388C35.4635 13.671 35.4309 13.9997 35.3476 14.3225C35.2848 14.5661 35.1937 14.7999 35.1009 15.0342C35.0076 15.2698 34.8881 15.489 34.7391 15.6923C34.4962 16.0238 34.1944 16.2966 33.8445 16.5177C33.6842 16.6189 33.5224 16.7179 33.3605 16.8168C33.3402 16.8292 33.3153 16.8345 33.2828 16.8348C33.3018 16.6774 33.3322 16.5285 33.359 16.3789C33.4398 15.9282 33.4946 15.476 33.4468 15.017C33.3984 14.5524 33.2474 14.1276 32.9477 13.7592C32.6409 13.3823 32.2462 13.1157 31.816 12.8942C31.7923 12.882 31.762 12.8824 31.7348 12.877C31.5274 12.7281 31.308 12.6007 31.0686 12.5065C30.8691 12.428 30.6752 12.3356 30.4735 12.2635C30.1947 12.1638 29.9118 12.0747 29.629 11.9863C29.4633 11.9346 29.2953 11.8893 29.1267 11.8476C28.7489 11.7542 28.3695 11.6671 27.9918 11.5731C27.8146 11.529 27.6402 11.4744 27.4642 11.4256C27.3273 11.3877 27.187 11.3597 27.0536 11.3126C26.8012 11.2235 26.5519 11.1259 26.3029 11.0282C25.9851 10.9035 25.6899 10.7347 25.4143 10.5392C25.2007 10.3877 25.0119 10.2034 24.8466 9.99909C24.6684 9.77884 24.5316 9.53588 24.4424 9.26924C24.386 9.10036 24.3343 8.92967 24.3173 8.7505C24.2954 8.51979 24.2669 8.29026 24.2872 8.05729C24.3205 7.67494 24.3794 7.29775 24.5362 6.94363C24.6723 6.63636 24.8512 6.35529 25.082 6.10353C25.3493 5.81197 25.6619 5.58007 26.0046 5.38613C26.176 5.28914 26.3608 5.21483 26.5481 5.13916C26.5473 5.191 26.5387 5.23416 26.5281 5.27685C26.4146 5.7365 26.3235 6.19943 26.3154 6.67449C26.3103 6.97659 26.3417 7.27395 26.4392 7.56212C26.5772 7.97 26.8335 8.29459 27.1719 8.56195C27.4179 8.75627 27.6914 8.90647 27.9772 9.0531C28.0506 9.08218 28.1172 9.10693 28.1837 9.13167Z" fill="#1075BB"/>
<path d="M31.7422 12.8818C31.7622 12.8821 31.7925 12.8817 31.8161 12.8939C32.2463 13.1154 32.6411 13.382 32.9478 13.7589C33.2476 14.1273 33.3986 14.5521 33.4469 15.0167C33.4947 15.4757 33.4399 15.9279 33.3592 16.3786C33.3324 16.5282 33.3019 16.6771 33.2746 16.8358C33.1786 16.8946 33.0842 16.9515 32.983 16.9916C32.7311 17.0912 32.4785 17.1877 32.2181 17.2676C31.9236 17.358 31.6219 17.4138 31.3243 17.4883C31.2184 17.5148 31.1074 17.5213 30.9989 17.5377C30.6077 17.5969 30.215 17.6308 29.8185 17.6217C29.4996 17.6144 29.1804 17.6204 28.8618 17.609C28.7088 17.6036 28.5568 17.5721 28.4046 17.5514C28.3242 17.5404 28.2444 17.5243 28.1638 17.5155C27.9047 17.4874 27.6536 17.4229 27.4026 17.358C27.0004 17.2541 26.6132 17.1094 26.2456 16.92C25.947 16.7662 25.6682 16.5819 25.4072 16.3694C25.1417 16.1532 24.9147 15.9043 24.7166 15.6312C24.5972 15.4666 24.5036 15.2837 24.4034 15.1063C24.2903 14.9062 24.2203 14.6893 24.1994 14.463C24.1741 14.1879 24.1867 13.9177 24.3024 13.653C24.4821 13.2422 24.7748 12.9415 25.1534 12.704C25.4016 12.5482 25.6651 12.4471 25.9559 12.4106C26.1448 12.3868 26.3332 12.3567 26.5227 12.3405C26.7498 12.3211 26.9778 12.307 27.2057 12.3026C27.4178 12.2986 27.6303 12.3097 27.8426 12.3161C27.8716 12.3169 27.9004 12.3293 27.9541 12.3424C27.8489 12.4075 27.7684 12.4591 27.6861 12.5079C27.493 12.6224 27.3221 12.7618 27.1819 12.936C26.9735 13.1949 26.8677 13.4858 26.9121 13.8174C26.9354 13.9917 27.0288 14.1372 27.138 14.2731C27.3429 14.5281 27.6108 14.7036 27.8984 14.8547C28.2556 15.0424 28.6357 15.1675 29.0307 15.2491C29.1733 15.2786 29.3195 15.2925 29.4645 15.3095C29.5973 15.3251 29.7308 15.3451 29.864 15.3457C30.1201 15.347 30.3767 15.3367 30.6265 15.2718C30.7793 15.232 30.9347 15.1967 31.0816 15.1406C31.5307 14.969 31.9003 14.7003 32.1264 14.27C32.2454 14.0436 32.3048 13.8026 32.2405 13.552C32.1849 13.3356 32.0633 13.1504 31.8906 13.0013C31.8448 12.9617 31.7966 12.925 31.7422 12.8818Z" fill="#8BC53F"/>
<path d="M27.9707 9.04874C27.692 8.90644 27.4185 8.75625 27.1725 8.56192C26.834 8.29456 26.5777 7.96997 26.4398 7.5621C26.3423 7.27392 26.3108 6.97656 26.316 6.67446C26.3241 6.1994 26.4151 5.73648 26.5287 5.27683C26.5392 5.23413 26.5478 5.19098 26.5571 5.13905C26.7476 5.06365 26.9364 4.99126 27.1295 4.9326C27.3037 4.8797 27.4816 4.8374 27.6597 4.79869C27.8101 4.76599 27.9628 4.74234 28.1153 4.71957C28.5919 4.64839 29.072 4.63602 29.5529 4.6481C29.6743 4.65116 29.7951 4.67319 29.9166 4.68033C30.0592 4.68871 30.2027 4.6851 30.345 4.69624C30.5305 4.71075 30.7152 4.73378 30.9001 4.7548C31.037 4.77036 31.1745 4.78345 31.3101 4.80678C31.5096 4.8411 31.7085 4.87975 31.9061 4.9237C32.0763 4.96159 32.2458 5.00462 32.413 5.05385C32.8825 5.1921 33.3246 5.38782 33.7137 5.68488C33.8843 5.81507 34.0283 5.97139 34.1577 6.14232C34.3384 6.3812 34.4376 6.65251 34.4887 6.93963C34.513 7.07605 34.5022 7.21921 34.5003 7.35922C34.4965 7.63371 34.4317 7.89829 34.3192 8.14666C34.1485 8.52374 33.8856 8.82137 33.4768 8.96441C33.3517 9.0082 33.2178 9.02993 33.0866 9.05487C32.9793 9.07526 32.8704 9.08867 32.7616 9.09939C32.5308 9.12215 32.2999 9.14537 32.0686 9.16043C31.8532 9.17445 31.6372 9.17859 31.4214 9.18588C31.3862 9.18707 31.3507 9.18205 31.2928 9.17853C31.3511 9.08367 31.4041 9.00556 31.4488 8.92309C31.5608 8.71612 31.6764 8.51051 31.7765 8.29795C31.8557 8.12943 31.8455 7.95265 31.7846 7.77557C31.6749 7.457 31.432 7.25988 31.153 7.09519C30.9468 6.97345 30.7217 6.89177 30.492 6.82603C30.3719 6.7917 30.2463 6.773 30.1219 6.7573C29.9731 6.73851 29.8229 6.72117 29.6731 6.72029C29.5151 6.71935 29.3565 6.73433 29.199 6.75024C29.066 6.76366 28.932 6.77925 28.8026 6.81045C28.6498 6.84728 28.4986 6.89482 28.3519 6.9507C28.1815 7.0156 28.0203 7.09901 27.8764 7.21392C27.5669 7.4611 27.3947 7.7728 27.4281 8.16806C27.4439 8.35539 27.5219 8.53255 27.6507 8.67656C27.7573 8.79575 27.8784 8.9025 27.9922 9.02446C27.9845 9.03902 27.9776 9.04388 27.9707 9.04874Z" fill="#8BC53F"/>
<path d="M49.8033 3.4343C49.4225 3.38594 49.1083 3.22104 48.8604 2.95624C48.577 2.65356 48.4106 2.29473 48.4172 1.87144C48.4203 1.67518 48.4253 1.48348 48.4932 1.29271C48.5663 1.08759 48.6773 0.910523 48.8217 0.750883C48.9719 0.584886 49.15 0.452334 49.3556 0.359632C49.4886 0.299682 49.6291 0.253041 49.7759 0.244176C50.0161 0.229677 50.2571 0.219698 50.4935 0.283821C50.8079 0.369079 51.077 0.527384 51.2882 0.770982C51.3774 0.873852 51.4585 0.986244 51.526 1.10385C51.631 1.28694 51.6876 1.48697 51.6837 1.69951C51.6811 1.83537 51.6724 1.97112 51.6693 2.10699C51.6661 2.24699 51.6081 2.37209 51.5515 2.49431C51.3879 2.84812 51.1187 3.10955 50.77 3.287C50.6494 3.34836 50.5127 3.38439 50.3794 3.41531C50.225 3.45111 50.0661 3.46951 49.9062 3.45687C49.875 3.4544 49.8446 3.4427 49.8033 3.4343Z" fill="#5B727C"/>
<path d="M27.9775 9.05285C27.9775 9.04366 27.9844 9.03879 27.9972 9.03125C28.0611 9.059 28.1191 9.08944 28.1805 9.12565C28.1175 9.10668 28.051 9.08193 27.9775 9.05285Z" fill="#599F63"/>
</g>
<defs>
<clipPath id="clip0_2_1378">
<rect width="71" height="23" fill="white"/>
</clipPath>
</defs>
</svg>
