<svg width="71" height="25" viewBox="0 0 71 25" fill="none" xmlns="http://www.w3.org/2000/svg">
<g clip-path="url(#clip0_2_1637)">
<path d="M66.6078 10.9414C65.4069 11.1862 64.1473 11.3184 63.5746 11.4842C62.9427 11.6638 62.4626 12.0247 62.4626 12.0247V10.2785C62.4626 9.22497 63.1239 8.02114 64.2655 7.7509C65.4069 7.47853 66.9971 7.32852 67.5683 8.38221C68.1389 9.43589 67.7355 10.7107 66.6078 10.9414ZM70.1073 13.7711C69.1858 16.508 65.4266 16.4528 65.4069 16.4528C63.929 16.4528 62.2835 16.3324 62.3425 14.1027C62.3621 13.3527 64.6079 12.9937 65.8873 12.8673C67.0526 12.7551 71.0972 12.5084 71.0972 9.34533C71.0972 8.32662 70.8261 7.56604 70.3922 7.00282C70.3825 6.99059 70.3715 6.97822 70.3595 6.96519C70.2816 6.86864 70.1972 6.78246 70.1068 6.71117C69.2505 6.03425 67.314 5.08509 64.9244 5.08509C62.5369 5.08509 59.5195 6.31234 59.5195 8.37835V9.78406H59.5198V15.4918C59.5198 17.5578 62.5372 18.7852 64.9247 18.7852C67.3144 18.7852 69.2511 17.8359 70.1073 17.1591C70.9633 16.4822 71.3236 14.5408 70.1073 13.7711Z" fill="#E0393E"/>
<path d="M58.4472 17.7968V6.90056C58.4472 6.27896 58.1084 4.62535 56.172 4.62535H56.1677C55.9908 4.60953 55.804 4.60953 55.605 4.62748C53.6287 4.68467 52.3101 5.32209 51.0384 6.18427C51.0327 5.20772 49.4012 4.28211 47.5371 4.75183C47.6533 4.85609 47.7989 5.25294 47.7989 5.8647V17.4531C48.2143 18.8821 50.7434 18.5363 51.269 18.4576C51.0977 18.4004 51.0406 18.1419 51.0406 17.7968V8.87548C52.6269 6.54149 55.2055 7.20844 55.2055 8.00957V9.94326V17.4531C55.6227 18.8821 58.1497 18.5363 58.6753 18.4576C58.5041 18.4004 58.4472 18.1419 58.4472 17.7968Z" fill="#E0393E"/>
<path d="M46.7252 6.6393C46.7252 5.58361 44.9576 4.5774 42.9424 5.0845C43.066 5.19901 43.2236 5.6271 43.2236 6.2882V17.3642C43.6743 18.9072 46.4041 18.5364 46.9732 18.4496C46.7881 18.3884 46.7252 18.108 46.7252 17.7351V6.6393Z" fill="#E0393E"/>
<path d="M44.929 3.4292C44.4625 3.4292 44.0632 3.25924 43.7325 2.91865C43.4016 2.57819 43.2363 2.16446 43.2363 1.67771C43.2363 1.21064 43.4016 0.811937 43.7325 0.48079C44.0632 0.150174 44.4625 -0.0155325 44.929 -0.0155325C45.4154 -0.0155325 45.829 0.150174 46.1695 0.48079C46.51 0.811937 46.6804 1.21064 46.6804 1.67771C46.6804 2.16446 46.51 2.57819 46.1695 2.91865C45.829 3.25924 45.4154 3.4292 44.929 3.4292Z" fill="#E0393E"/>
<path d="M42.1686 1.85695C42.1686 0.801262 40.401 -0.204948 38.3857 0.302147C38.5094 0.416653 38.6669 0.844749 38.6669 1.50585V17.3642C39.1177 18.9072 41.8475 18.5364 42.4165 18.4496C42.2314 18.3884 42.1686 18.108 42.1686 17.7353V1.85695Z" fill="#E0393E"/>
<path d="M10.3441 6.69097C9.25397 5.78543 7.72986 5.32103 6.12186 5.32103C2.55949 5.32103 0.260504 7.15723 0.260504 10.0046C0.260504 12.0674 1.22991 13.3261 3.22322 13.8396C3.22322 13.8396 3.65162 13.9311 3.67887 13.9311C3.67887 13.9311 0.723865 14.3312 0.704586 16.357C0.704586 16.3766 0.704586 16.3978 0.706447 16.4174C0.719876 16.6243 0.827174 17.5651 1.60179 18.0137C1.64075 18.0352 1.67957 18.0548 1.72039 18.0703C2.41936 18.3319 3.5523 18.4764 5.07468 18.4996C5.65278 18.4996 6.07719 18.5135 6.35534 18.5232C6.4859 18.527 6.58336 18.5309 6.64545 18.5309C7.75313 18.5914 8.26117 18.7769 8.61351 18.9545C9.04589 19.2024 9.32803 19.7331 9.32803 20.3088C9.32803 20.8808 8.97183 21.4641 8.40144 21.8232C7.91481 22.1472 7.13221 22.3073 6.00884 22.3073C4.47689 22.3073 2.65881 21.5792 1.7886 20.6231C1.43626 20.2289 1.24573 19.8111 1.23589 19.4032C0.223541 19.9886 -0.218281 20.8613 0.0151949 21.8232C0.385086 23.3239 2.50312 24.938 6.2854 24.938C8.02769 24.938 10.3966 24.6256 11.7807 23.1425C12.5479 22.3209 12.8864 21.4407 12.8864 20.2796C12.8864 19.0287 12.5108 18.0919 11.7048 17.3386C10.7334 16.4468 9.63171 16.119 7.49625 16.0897L5.51251 16.0643C5.08824 16.0643 4.81368 15.8983 4.81368 15.6406C4.81368 15.1237 5.79691 14.6416 6.40227 14.3918C6.65728 14.4171 6.76033 14.4171 6.91802 14.4171C9.88273 14.4171 12.0317 12.6879 12.0317 10.3112C12.0317 9.49335 11.8683 7.95757 10.3441 6.69097ZM7.76284 11.7844C6.77788 12.6375 5.28488 12.5279 4.43594 11.5386C4.42039 11.5209 4.40496 11.4995 4.38741 11.4858C4.18292 11.2752 4.03507 10.996 3.95343 10.6488C3.70999 9.78992 3.95729 8.82773 4.67753 8.20334C5.66648 7.34874 7.15761 7.45792 8.00801 8.44937C8.86081 9.43683 8.74992 10.9277 7.76284 11.7844Z" fill="#0075BF"/>
<path d="M24.2021 17.405V9.09342C24.2021 7.05001 21.2177 5.83607 18.8565 5.83607C16.4933 5.83607 14.5779 6.77499 13.7311 7.44433C12.8842 8.11367 12.5281 10.0341 13.7311 10.795C14.6421 8.08827 18.36 8.1428 18.3796 8.1428C19.8414 8.1428 21.469 8.26196 21.4104 10.4673C21.391 11.2089 19.17 11.5641 17.9046 11.6889C16.7523 11.8 12.752 12.0441 12.752 15.1724C12.752 18.2989 15.3349 18.9683 17.2952 18.9683C19.2575 18.9683 20.1918 18.2091 21.3949 17.4947C22.2864 18.5662 23.9802 18.8355 24.5582 18.4335C24.2468 18.254 24.2021 17.405 24.2021 17.405ZM21.2916 14.2495C21.2916 15.2913 20.6377 16.4819 19.5087 16.7492C18.3796 17.0187 16.8067 17.167 16.2423 16.1249C15.6777 15.0825 16.0767 13.822 17.1921 13.5937C18.3796 13.3518 19.6254 13.2209 20.1918 13.0571C20.8167 12.8793 21.2916 12.5223 21.2916 12.5223V14.2495Z" fill="#0075BF"/>
<path d="M30.3693 5.3307C28.5919 5.3307 25.3781 6.08968 25.3781 9.18677C25.3781 12.2821 29.0029 12.522 31.0234 13.1464C33.0418 13.773 33.7542 14.3077 33.7251 15.0823C33.696 15.8573 32.8336 16.749 31.2899 16.749C29.7444 16.749 28.082 15.9158 28.082 14.9634C28.082 14.0111 29.1797 13.533 29.1797 13.533C29.1797 13.533 27.5836 13.4139 26.7154 13.7126C26.1003 13.9252 24.5759 14.9634 25.6466 16.749C26.7154 18.5368 28.8547 19.1631 30.992 19.1631C33.1313 19.1631 35.7982 18.3846 36.6062 16.5422C37.2934 14.9772 37.1453 13.7613 36.3764 12.8305C35.6346 11.9366 34.3209 11.3082 32.6272 10.8944C31.5956 10.6426 30.6436 10.6506 29.6256 10.1978C28.4422 9.67299 28.4013 8.64643 29.0553 8.07842C29.8047 7.42863 31.1889 7.42863 31.8993 7.63157C33.0302 7.9574 33.517 8.67954 33.1607 9.36445C32.8043 10.0496 32.7147 10.1391 32.7147 10.1391C32.7147 10.1391 34.5274 10.1391 35.1209 9.84082C35.7164 9.54412 36.0416 8.82969 36.0416 8.05515C36.0416 7.17488 35.4772 5.3307 30.3693 5.3307Z" fill="#ADC32B"/>
<path d="M36.3763 12.8307C35.8875 12.2432 35.1517 11.7689 34.2214 11.3964C34.2117 11.3924 34.2019 11.3886 34.192 11.3846C34.167 11.3749 34.1415 11.365 34.1164 11.3533C34.0774 11.3396 34.0403 11.3259 34.0015 11.3104C33.9938 11.3084 33.9859 11.3047 33.9761 11.3007C33.9741 11.3007 33.9721 11.3007 33.9701 11.2988C33.5557 11.1464 33.106 11.0118 32.6271 10.8946C31.8036 10.6936 31.0329 10.6567 30.2368 10.4225C30.2348 10.4225 30.2328 10.4205 30.2308 10.4205C30.0303 10.36 29.8299 10.2898 29.6254 10.198C29.5729 10.1745 29.5223 10.1492 29.4716 10.1238C27.5269 9.26697 27.1473 8.15676 27.7469 5.8362C26.4778 6.36311 25.3779 7.37411 25.3779 9.18704C25.3779 12.2824 29.0027 12.5223 31.0231 13.1467C31.8036 13.3886 32.3896 13.6171 32.8121 13.8514C32.8567 13.8767 32.8997 13.902 32.9425 13.9275C32.96 13.9371 32.9756 13.949 32.9931 13.9589C32.9969 13.9606 33.001 13.9646 33.0047 13.9665C33.03 13.982 33.0554 13.9977 33.0786 14.0153C33.1 14.0291 33.1216 14.0427 33.1409 14.0582C34.893 14.9461 35.2745 16.1151 34.7588 18.332C35.5861 17.9106 36.2634 17.3233 36.606 16.5424C37.2933 14.9775 37.1452 13.7615 36.3763 12.8307Z" fill="#0075BF"/>
<path d="M19.816 22.9998L19.334 21.5901H19.9023L20.1748 22.5543L20.9726 21.5901H21.591L20.3177 23.0465L20.0819 23.9175H19.5699L19.816 22.9998Z" fill="#231F20"/>
<path d="M22.4006 23.4718C22.4637 23.4339 22.5175 23.3865 22.5617 23.3295C22.606 23.2726 22.6404 23.2096 22.6648 23.1404C22.6891 23.0713 22.7013 23.0042 22.7013 22.9396C22.7013 22.8079 22.6658 22.707 22.595 22.6368C22.5241 22.5664 22.431 22.5313 22.3158 22.5313C22.2381 22.5313 22.1679 22.5502 22.1046 22.5881C22.0416 22.6261 21.9879 22.6735 21.9435 22.7304C21.8992 22.7875 21.8649 22.8509 21.8404 22.9213C21.8161 22.9916 21.8039 23.058 21.8039 23.1203C21.8039 23.252 21.8392 23.3529 21.9102 23.4233C21.9812 23.4935 22.0742 23.5288 22.1894 23.5288C22.267 23.5288 22.3373 23.5097 22.4006 23.4718ZM21.8089 23.8961C21.7036 23.8551 21.6139 23.7979 21.5395 23.7248C21.4654 23.6518 21.4083 23.5647 21.3684 23.4639C21.3285 23.363 21.3086 23.2528 21.3086 23.133C21.3086 23 21.3352 22.8715 21.3884 22.7474C21.4416 22.6232 21.5147 22.5135 21.6078 22.4181C21.7008 22.3229 21.81 22.2465 21.9352 22.1889C22.0603 22.1312 22.1949 22.1023 22.339 22.1023C22.472 22.1023 22.5911 22.1228 22.6964 22.1639C22.8016 22.205 22.8913 22.2619 22.9657 22.335C23.0399 22.4083 23.0969 22.4953 23.1368 22.5961C23.1767 22.697 23.1966 22.8073 23.1966 22.9268C23.1966 23.0598 23.1695 23.1884 23.1152 23.3126C23.0609 23.4367 22.9872 23.5466 22.8941 23.6417C22.8011 23.737 22.6919 23.8135 22.5668 23.8712C22.4415 23.9288 22.308 23.9575 22.1662 23.9575C22.0332 23.9575 21.9141 23.937 21.8089 23.8961Z" fill="#231F20"/>
<path d="M23.6156 23.8128C23.5203 23.7209 23.4727 23.5939 23.4727 23.432C23.4727 23.3811 23.4788 23.3263 23.491 23.2674C23.5031 23.2087 23.5171 23.1506 23.5325 23.0929L23.7884 22.1354H24.2938L24.0311 23.1152C24.0244 23.1397 24.0189 23.167 24.0145 23.1969C24.0101 23.2269 24.0078 23.253 24.0078 23.2752C24.0078 23.3464 24.0294 23.4008 24.0727 23.4387C24.1159 23.4764 24.1763 23.4952 24.2538 23.4952C24.3535 23.4952 24.4355 23.4625 24.4998 23.3969C24.5641 23.3313 24.6105 23.2452 24.6394 23.1386L24.9087 22.1354H25.4139L24.9385 23.9174H24.4333L24.4831 23.7328C24.4189 23.7902 24.3469 23.8407 24.2671 23.8847C24.1873 23.9286 24.0976 23.9507 23.9978 23.9507C23.8383 23.9507 23.7109 23.9047 23.6156 23.8128Z" fill="#231F20"/>
<path d="M25.8689 22.1354H26.3741L26.2777 22.4945C26.3685 22.3615 26.4677 22.26 26.5752 22.1903C26.6826 22.1205 26.8096 22.0911 26.9558 22.1022L26.8129 22.6309H26.7862C26.6178 22.6309 26.4716 22.6819 26.3475 22.7837C26.2234 22.8859 26.1303 23.053 26.0683 23.2858L25.8988 23.9175H25.3936L25.8689 22.1354Z" fill="#231F20"/>
<path d="M28.4589 21.5901H30.1973L30.0743 22.0456H28.8445L28.7182 22.5211H29.7985L29.6755 22.9699H28.5952L28.4622 23.462H29.712L29.589 23.9175H27.834L28.4589 21.5901Z" fill="#231F20"/>
<path d="M30.4695 22.1354H30.9747L30.9249 22.3201C30.9891 22.2628 31.0611 22.2123 31.1409 22.1683C31.2207 22.1242 31.3104 22.1022 31.4102 22.1022C31.5697 22.1022 31.6971 22.1483 31.7924 22.2402C31.8877 22.3321 31.9353 22.4591 31.9353 22.6208C31.9353 22.6719 31.9292 22.7267 31.9171 22.7855C31.9049 22.8442 31.8909 22.9025 31.8755 22.9599L31.6196 23.9175H31.1145L31.3769 22.9376C31.3836 22.9133 31.3891 22.8861 31.3935 22.8559C31.3979 22.826 31.4002 22.7998 31.4002 22.7776C31.4002 22.7066 31.3786 22.6522 31.3354 22.6144C31.2921 22.5765 31.2317 22.5578 31.1542 22.5578C31.0545 22.5578 30.9725 22.5905 30.9082 22.6561C30.8439 22.7216 30.7975 22.8077 30.7686 22.9143L30.4995 23.9175H29.9941L30.4695 22.1354Z" fill="#231F20"/>
<path d="M33.4913 22.8869C33.5023 22.8493 33.5079 22.8105 33.5079 22.7706C33.5079 22.6974 33.4852 22.6353 33.4397 22.5844C33.3943 22.5335 33.3195 22.5079 33.2154 22.5079C33.1002 22.5079 32.9988 22.5428 32.9113 22.6126C32.8237 22.6825 32.7588 22.7739 32.7168 22.8869H33.4913ZM32.7833 23.4571C32.8475 23.5204 32.9461 23.5519 33.0791 23.5519C33.1456 23.5519 33.2099 23.5409 33.272 23.5186C33.3338 23.4966 33.4015 23.46 33.4746 23.4089L33.7073 23.7215C33.6276 23.788 33.5317 23.8439 33.4199 23.8893C33.3079 23.9348 33.1755 23.9575 33.0227 23.9575C32.8941 23.9575 32.7789 23.9392 32.6769 23.9027C32.5749 23.866 32.4885 23.814 32.4176 23.7465C32.3468 23.6788 32.2924 23.5963 32.2547 23.4987C32.2171 23.4012 32.1982 23.2903 32.1982 23.1662C32.1982 23.0378 32.2232 22.9097 32.2731 22.7823C32.323 22.6547 32.3944 22.5406 32.4874 22.4398C32.5805 22.3389 32.6918 22.2575 32.8216 22.1954C32.9512 22.1334 33.0957 22.1023 33.2554 22.1023C33.3705 22.1023 33.4735 22.12 33.5644 22.1555C33.6552 22.191 33.7318 22.2398 33.7937 22.3018C33.8557 22.3638 33.9029 22.437 33.9351 22.5212C33.9671 22.6055 33.9832 22.6974 33.9832 22.7972C33.9832 22.8615 33.9755 22.928 33.9599 22.9967C33.9444 23.0654 33.9222 23.134 33.8935 23.2028H32.6737C32.6825 23.3092 32.7189 23.394 32.7833 23.4571Z" fill="#231F20"/>
<path d="M34.5447 22.1354H35.0499L34.9535 22.4945C35.0445 22.3615 35.1435 22.26 35.2509 22.1903C35.3585 22.1205 35.4853 22.0911 35.6316 22.1022L35.4888 22.6309H35.4621C35.2938 22.6309 35.1474 22.6819 35.0234 22.7837C34.8993 22.8859 34.8062 23.053 34.7441 23.2858L34.5747 23.9175H34.0693L34.5447 22.1354Z" fill="#231F20"/>
<path d="M36.6753 23.3274C36.7395 23.2997 36.7955 23.2626 36.8432 23.2159C36.8908 23.1695 36.929 23.1146 36.9578 23.0514C36.9867 22.9882 37.001 22.9212 37.001 22.8502C37.001 22.7483 36.969 22.6685 36.9048 22.6108C36.8404 22.5534 36.7552 22.5245 36.6488 22.5245C36.5778 22.5245 36.5113 22.5389 36.4494 22.5676C36.3873 22.5964 36.333 22.6353 36.2864 22.6839C36.24 22.7328 36.2033 22.7893 36.1767 22.8535C36.1502 22.9179 36.1368 22.9844 36.1368 23.053C36.1368 23.1594 36.1683 23.2388 36.2316 23.2908C36.2947 23.3429 36.3761 23.3689 36.4758 23.3689C36.5446 23.3689 36.6111 23.3552 36.6753 23.3274ZM35.7878 24.3913C35.6238 24.3481 35.482 24.2866 35.3623 24.2067L35.6282 23.8611C35.7213 23.923 35.8233 23.9713 35.9342 24.0056C36.0449 24.0399 36.1569 24.0571 36.2697 24.0571C36.354 24.0571 36.4272 24.0455 36.4893 24.0222C36.5511 23.999 36.6065 23.9629 36.6555 23.9141C36.6931 23.8765 36.7246 23.8317 36.75 23.7795C36.7755 23.7275 36.7984 23.666 36.8182 23.5951L36.8348 23.5351C36.7418 23.6194 36.6532 23.6798 36.5689 23.7164C36.4846 23.7529 36.3873 23.7713 36.2764 23.7713C36.1901 23.7713 36.1074 23.7579 36.0288 23.7313C35.9501 23.7048 35.8798 23.6654 35.8178 23.6133C35.7557 23.5613 35.7064 23.4964 35.6698 23.4187C35.6333 23.3412 35.6149 23.2516 35.6149 23.1494C35.6149 23.001 35.6426 22.8631 35.698 22.7355C35.7533 22.6081 35.8266 22.4974 35.9175 22.4031C36.0082 22.3089 36.1119 22.2351 36.2283 22.182C36.3446 22.1287 36.4648 22.1021 36.589 22.1021C36.6642 22.1021 36.7307 22.1105 36.7884 22.1271C36.8459 22.1437 36.8964 22.1665 36.9396 22.1952C36.9828 22.2241 37.0194 22.2573 37.0493 22.295C37.0792 22.3327 37.1063 22.3716 37.1308 22.4113L37.2039 22.1354H37.709L37.3268 23.5683C37.3024 23.6593 37.2792 23.7368 37.257 23.8012C37.2349 23.8654 37.2115 23.922 37.1873 23.9708C37.1628 24.0194 37.1368 24.0627 37.1091 24.1003C37.0815 24.1381 37.0497 24.1746 37.0145 24.2102C36.9324 24.2921 36.8343 24.3537 36.7202 24.3946C36.606 24.4356 36.4671 24.4561 36.303 24.4561C36.1236 24.4561 35.9518 24.4345 35.7878 24.3913Z" fill="#231F20"/>
<path d="M37.7488 24.4262C37.6846 24.404 37.6248 24.3741 37.5693 24.3365L37.8386 23.9707C37.8652 23.9907 37.8961 24.0073 37.9316 24.0206C37.9671 24.0339 38.0015 24.0406 38.0347 24.0406C38.0725 24.0406 38.1057 24.0334 38.1344 24.0189C38.1631 24.0045 38.1953 23.9751 38.2308 23.9307L38.0116 22.1353H38.5268L38.6099 23.3457L39.2779 22.1353H39.8231L38.7194 23.9608C38.6087 24.1447 38.4962 24.2738 38.3821 24.348C38.2679 24.4224 38.1355 24.4595 37.9848 24.4595C37.8918 24.4595 37.813 24.4483 37.7488 24.4262Z" fill="#231F20"/>
<path d="M41.3319 21.5901H43.0704L42.9474 22.0456H41.7175L41.5912 22.5211H42.6715L42.5485 22.9699H41.4682L41.3353 23.462H42.5851L42.4621 23.9175H40.707L41.3319 21.5901Z" fill="#231F20"/>
<path d="M43.3197 22.5643H43.107L43.2233 22.1353H43.4328L43.456 22.039C43.5048 21.8372 43.59 21.6916 43.712 21.6018C43.8338 21.5119 43.9889 21.4671 44.1773 21.4671C44.2482 21.4671 44.3131 21.4715 44.3717 21.4806C44.4305 21.4895 44.4809 21.5018 44.523 21.5174L44.4133 21.9392C44.3801 21.9259 44.3441 21.9154 44.3052 21.9077C44.2665 21.8999 44.2294 21.896 44.1939 21.896C44.061 21.896 43.9779 21.9595 43.9446 22.0862L43.9314 22.1353H44.3601L44.2438 22.5643H43.825L43.4593 23.9175H42.9541L43.3197 22.5643Z" fill="#231F20"/>
<path d="M44.6859 22.5643H44.4731L44.5894 22.1353H44.799L44.8221 22.039C44.8709 21.8372 44.9563 21.6916 45.078 21.6018C45.2 21.5119 45.3551 21.4671 45.5434 21.4671C45.6143 21.4671 45.6793 21.4715 45.7379 21.4806C45.7967 21.4895 45.8469 21.5018 45.8892 21.5174L45.7795 21.9392C45.7463 21.9259 45.7101 21.9154 45.6714 21.9077C45.6326 21.8999 45.5955 21.896 45.56 21.896C45.4271 21.896 45.344 21.9595 45.3107 22.0862L45.2976 22.1353H45.7262L45.6099 22.5643H45.1912L44.8256 23.9175H44.3203L44.6859 22.5643Z" fill="#231F20"/>
<path d="M46.2616 21.4904H46.7935L46.6705 21.9392H46.1387L46.2616 21.4904ZM46.0986 22.1354H46.604L46.1254 23.9175H45.6201L46.0986 22.1354Z" fill="#231F20"/>
<path d="M47.2483 23.8994C47.1464 23.8607 47.0589 23.8063 46.9856 23.7365C46.9126 23.6667 46.8556 23.5825 46.8145 23.4838C46.7735 23.3853 46.7529 23.275 46.7529 23.1531C46.7529 23.0068 46.7812 22.8699 46.8378 22.7424C46.8943 22.615 46.9702 22.5042 47.0655 22.4099C47.1607 22.3157 47.2721 22.2409 47.3996 22.1854C47.527 22.1301 47.6616 22.1023 47.8034 22.1023C47.9009 22.1023 47.9884 22.1128 48.0659 22.1338C48.1435 22.1547 48.2116 22.1828 48.2704 22.2179C48.3292 22.2531 48.3802 22.2943 48.4233 22.3415C48.4665 22.3889 48.5036 22.439 48.5347 22.4917L48.149 22.7641C48.1047 22.6953 48.0543 22.6393 47.998 22.5961C47.9413 22.5529 47.8633 22.5313 47.7635 22.5313C47.6971 22.5313 47.6329 22.5479 47.5708 22.5813C47.5087 22.6147 47.4544 22.6598 47.4079 22.7163C47.3613 22.7731 47.3236 22.8392 47.2949 22.915C47.266 22.9905 47.2515 23.0695 47.2515 23.1517C47.2515 23.2674 47.2848 23.3592 47.3512 23.427C47.4177 23.4948 47.5008 23.5288 47.6005 23.5288C47.6782 23.5288 47.748 23.5139 47.8101 23.4838C47.872 23.4539 47.9364 23.4101 48.0029 23.3525L48.2621 23.6816C48.1691 23.7659 48.0704 23.8329 47.9662 23.8828C47.8621 23.9327 47.7347 23.9575 47.5839 23.9575C47.4621 23.9575 47.3503 23.9382 47.2483 23.8994Z" fill="#231F20"/>
<path d="M49.1269 21.4904H49.6587L49.5357 21.9392H49.0039L49.1269 21.4904ZM48.9639 22.1354H49.4692L48.9906 23.9175H48.4854L48.9639 22.1354Z" fill="#231F20"/>
<path d="M50.9083 22.8869C50.9193 22.8493 50.9249 22.8105 50.9249 22.7706C50.9249 22.6974 50.9021 22.6353 50.8567 22.5844C50.8113 22.5335 50.7365 22.5079 50.6324 22.5079C50.5172 22.5079 50.4158 22.5428 50.3283 22.6126C50.2407 22.6825 50.1758 22.7739 50.1338 22.8869H50.9083ZM50.2003 23.4571C50.2645 23.5204 50.3631 23.5519 50.4961 23.5519C50.5626 23.5519 50.6269 23.5409 50.689 23.5186C50.7508 23.4966 50.8185 23.46 50.8916 23.4089L51.1243 23.7215C51.0445 23.788 50.9487 23.8439 50.8369 23.8893C50.7249 23.9348 50.5925 23.9575 50.4397 23.9575C50.3111 23.9575 50.1959 23.9392 50.0939 23.9027C49.9919 23.866 49.9055 23.814 49.8346 23.7465C49.7637 23.6788 49.7094 23.5963 49.6717 23.4987C49.6341 23.4012 49.6152 23.2903 49.6152 23.1662C49.6152 23.0378 49.6402 22.9097 49.6901 22.7823C49.7399 22.6547 49.8113 22.5406 49.9044 22.4398C49.9975 22.3389 50.1088 22.2575 50.2385 22.1954C50.3682 22.1334 50.5127 22.1023 50.6724 22.1023C50.7875 22.1023 50.8904 22.12 50.9814 22.1555C51.0722 22.191 51.1488 22.2398 51.2107 22.3018C51.2727 22.3638 51.3199 22.437 51.3521 22.5212C51.3841 22.6055 51.4002 22.6974 51.4002 22.7972C51.4002 22.8615 51.3925 22.928 51.3769 22.9967C51.3614 23.0654 51.3392 23.134 51.3105 23.2028H50.0907C50.0995 23.3092 50.1359 23.394 50.2003 23.4571Z" fill="#231F20"/>
<path d="M51.9617 22.1354H52.4669L52.417 22.3201C52.4813 22.2628 52.5533 22.2123 52.6331 22.1683C52.7129 22.1242 52.8026 22.1022 52.9023 22.1022C53.0619 22.1022 53.1893 22.1483 53.2846 22.2402C53.3799 22.3321 53.4275 22.4591 53.4275 22.6208C53.4275 22.6719 53.4214 22.7267 53.4093 22.7855C53.3971 22.8442 53.3831 22.9025 53.3677 22.9599L53.1117 23.9175H52.6066L52.8691 22.9376C52.8757 22.9133 52.8813 22.8861 52.8857 22.8559C52.8901 22.826 52.8924 22.7998 52.8924 22.7776C52.8924 22.7066 52.8708 22.6522 52.8276 22.6144C52.7843 22.5765 52.7239 22.5578 52.6464 22.5578C52.5467 22.5578 52.4646 22.5905 52.4004 22.6561C52.3361 22.7216 52.2897 22.8077 52.2608 22.9143L51.9917 23.9175H51.4863L51.9617 22.1354Z" fill="#231F20"/>
<path d="M54.1888 23.8994C54.0868 23.8607 53.9993 23.8063 53.926 23.7365C53.853 23.6667 53.796 23.5825 53.7549 23.4838C53.714 23.3853 53.6934 23.275 53.6934 23.1531C53.6934 23.0068 53.7217 22.8699 53.7782 22.7424C53.8347 22.615 53.9106 22.5042 54.0059 22.4099C54.1011 22.3157 54.2126 22.2409 54.3401 22.1854C54.4674 22.1301 54.602 22.1023 54.7439 22.1023C54.8413 22.1023 54.9288 22.1128 55.0063 22.1338C55.084 22.1547 55.1521 22.1828 55.2108 22.2179C55.2696 22.2531 55.3206 22.2943 55.3637 22.3415C55.4069 22.3889 55.444 22.439 55.4751 22.4917L55.0894 22.7641C55.0452 22.6953 54.9948 22.6393 54.9384 22.5961C54.8817 22.5529 54.8037 22.5313 54.704 22.5313C54.6375 22.5313 54.5733 22.5479 54.5112 22.5813C54.4491 22.6147 54.3949 22.6598 54.3483 22.7163C54.3018 22.7731 54.264 22.8392 54.2353 22.915C54.2064 22.9905 54.192 23.0695 54.192 23.1517C54.192 23.2674 54.2252 23.3592 54.2917 23.427C54.3582 23.4948 54.4413 23.5288 54.541 23.5288C54.6186 23.5288 54.6884 23.5139 54.7505 23.4838C54.8125 23.4539 54.8768 23.4101 54.9433 23.3525L55.2026 23.6816C55.1095 23.7659 55.0109 23.8329 54.9066 23.8828C54.8025 23.9327 54.6751 23.9575 54.5244 23.9575C54.4026 23.9575 54.2907 23.9382 54.1888 23.8994Z" fill="#231F20"/>
<path d="M55.4619 24.4262C55.3976 24.404 55.3377 24.3741 55.2822 24.3365L55.5516 23.9707C55.5782 23.9907 55.609 24.0073 55.6447 24.0206C55.68 24.0339 55.7143 24.0406 55.7476 24.0406C55.7853 24.0406 55.8186 24.0334 55.8473 24.0189C55.8762 24.0045 55.9082 23.9751 55.9438 23.9307L55.7244 22.1353H56.2397L56.3228 23.3457L56.9909 22.1353H57.536L56.4325 23.9608C56.3216 24.1447 56.2091 24.2738 56.095 24.348C55.9808 24.4224 55.8485 24.4595 55.6977 24.4595C55.6047 24.4595 55.5259 24.4483 55.4619 24.4262Z" fill="#231F20"/>
<path d="M59.59 22.7638C59.7605 22.7638 59.8979 22.7277 60.0023 22.6558C60.1064 22.5837 60.1584 22.4812 60.1584 22.3482C60.1584 22.2707 60.1328 22.2064 60.0819 22.1554C60.0465 22.1198 60.0037 22.0938 59.9539 22.0772C59.904 22.0605 59.8405 22.0521 59.7628 22.0521H59.4304L59.2409 22.7638H59.59ZM59.0448 21.5901H59.7827C59.9489 21.5901 60.0913 21.6084 60.2099 21.6449C60.3284 21.6815 60.4297 21.7419 60.514 21.8262C60.6338 21.9459 60.6935 22.1055 60.6935 22.305C60.6935 22.4491 60.6641 22.5776 60.6055 22.6906C60.5467 22.8037 60.467 22.899 60.3662 22.9766C60.2653 23.0542 60.1463 23.1129 60.0088 23.1528C59.8713 23.1927 59.7229 23.2126 59.5634 23.2126H59.1214L58.9318 23.9175H58.4199L59.0448 21.5901Z" fill="#231F20"/>
<path d="M61.5459 23.5771C61.5935 23.5582 61.6373 23.5321 61.6773 23.4989C61.7172 23.4656 61.7515 23.4275 61.7803 23.3842C61.8091 23.341 61.8302 23.295 61.8435 23.2463L61.8568 23.1996C61.8124 23.182 61.7615 23.1671 61.7037 23.1548C61.6462 23.1426 61.5865 23.1365 61.5244 23.1365C61.418 23.1365 61.3311 23.1615 61.2634 23.2113C61.1958 23.2612 61.1621 23.3294 61.1621 23.4158C61.1621 23.4712 61.1831 23.5167 61.2252 23.5522C61.2672 23.5876 61.3238 23.6054 61.3948 23.6054C61.4479 23.6054 61.4983 23.596 61.5459 23.5771ZM60.9676 23.9162C60.9045 23.8929 60.8502 23.8597 60.8048 23.8165C60.7593 23.7732 60.7237 23.7228 60.6983 23.6651C60.6729 23.6075 60.6602 23.5433 60.6602 23.4724C60.6602 23.3704 60.6801 23.2796 60.72 23.1996C60.7599 23.1198 60.8141 23.0524 60.8829 22.997C60.9515 22.9415 61.0324 22.8999 61.1255 22.8722C61.2186 22.8446 61.3194 22.8307 61.428 22.8307C61.5255 22.8307 61.6147 22.8378 61.6955 22.8523C61.7763 22.8666 61.8545 22.8862 61.9299 22.9104L61.9366 22.8872C61.9409 22.8672 61.9453 22.8468 61.9499 22.8257C61.9542 22.8045 61.9565 22.7809 61.9565 22.7543C61.9565 22.6921 61.932 22.6417 61.8834 22.6029C61.8346 22.5642 61.7471 22.5447 61.6207 22.5447C61.5344 22.5447 61.4495 22.5542 61.3664 22.573C61.2833 22.5919 61.2097 22.6146 61.1455 22.6412L61.0657 22.2422C61.1588 22.2046 61.2606 22.174 61.3715 22.1507C61.4822 22.1275 61.6008 22.1159 61.7272 22.1159C61.9687 22.1159 62.1493 22.1635 62.2688 22.2589C62.3886 22.3542 62.4485 22.4893 62.4485 22.6645C62.4485 22.7109 62.4446 22.7564 62.4368 22.8007C62.429 22.8451 62.4196 22.8894 62.4086 22.9337L62.146 23.9179H61.6573L61.7105 23.7118C61.6395 23.7893 61.5598 23.8486 61.4712 23.8896C61.3825 23.9306 61.2851 23.9512 61.1787 23.9512C61.101 23.9512 61.0307 23.9395 60.9676 23.9162Z" fill="#231F20"/>
<path d="M63.0574 22.1354H63.5626L63.4662 22.4945C63.5571 22.3615 63.6562 22.26 63.7636 22.1903C63.8712 22.1205 63.998 22.0911 64.1443 22.1022L64.0015 22.6309H63.9748C63.8064 22.6309 63.6601 22.6819 63.5361 22.7837C63.412 22.8859 63.3189 23.053 63.2568 23.2858L63.0874 23.9175H62.582L63.0574 22.1354Z" fill="#231F20"/>
<path d="M64.2801 23.8474C64.2048 23.7808 64.167 23.6974 64.167 23.5974C64.167 23.5596 64.1698 23.523 64.1754 23.4874C64.181 23.4519 64.1892 23.414 64.2002 23.3739L64.4163 22.5643H64.2037L64.32 22.1353H64.5326L64.6556 21.6798H65.161L65.0379 22.1353H65.4568L65.3405 22.5643H64.9215L64.7221 23.3152C64.7177 23.3286 64.7144 23.3424 64.7123 23.3569C64.7099 23.3713 64.7089 23.3842 64.7089 23.3952C64.7089 23.4662 64.7543 23.5017 64.8452 23.5017C64.8851 23.5017 64.9277 23.4968 64.9731 23.4869C65.0186 23.4769 65.0623 23.463 65.1044 23.4454L64.988 23.8741C64.8839 23.9228 64.7621 23.9473 64.6224 23.9473C64.4696 23.9473 64.3554 23.914 64.2801 23.8474Z" fill="#231F20"/>
<path d="M65.8288 22.1354H66.3341L66.2842 22.3201C66.3484 22.2628 66.4205 22.2123 66.5003 22.1683C66.5801 22.1242 66.6698 22.1022 66.7695 22.1022C66.9291 22.1022 67.0564 22.1483 67.1518 22.2402C67.2471 22.3321 67.2947 22.4591 67.2947 22.6208C67.2947 22.6719 67.2886 22.7267 67.2765 22.7855C67.2643 22.8442 67.2503 22.9025 67.2349 22.9599L66.9789 23.9175H66.4738L66.7363 22.9376C66.7429 22.9133 66.7485 22.8861 66.7529 22.8559C66.7573 22.826 66.7596 22.7998 66.7596 22.7776C66.7596 22.7066 66.738 22.6522 66.6948 22.6144C66.6515 22.5765 66.5911 22.5578 66.5136 22.5578C66.4139 22.5578 66.3318 22.5905 66.2676 22.6561C66.2033 22.7216 66.1569 22.8077 66.128 22.9143L65.8589 23.9175H65.3535L65.8288 22.1354Z" fill="#231F20"/>
<path d="M68.8506 22.8869C68.8617 22.8493 68.8673 22.8105 68.8673 22.7706C68.8673 22.6974 68.8445 22.6353 68.7991 22.5844C68.7537 22.5335 68.6789 22.5079 68.5748 22.5079C68.4596 22.5079 68.3582 22.5428 68.2707 22.6126C68.1831 22.6825 68.1182 22.7739 68.0762 22.8869H68.8506ZM68.1426 23.4571C68.2069 23.5204 68.3055 23.5519 68.4385 23.5519C68.5049 23.5519 68.5693 23.5409 68.6314 23.5186C68.6932 23.4966 68.7609 23.46 68.834 23.4089L69.0667 23.7215C68.9869 23.788 68.8911 23.8439 68.7792 23.8893C68.6673 23.9348 68.5349 23.9575 68.3821 23.9575C68.2535 23.9575 68.1382 23.9392 68.0363 23.9027C67.9343 23.866 67.8479 23.814 67.777 23.7465C67.7061 23.6788 67.6518 23.5963 67.6141 23.4987C67.5765 23.4012 67.5576 23.2903 67.5576 23.1662C67.5576 23.0378 67.5826 22.9097 67.6325 22.7823C67.6823 22.6547 67.7537 22.5406 67.8468 22.4398C67.9399 22.3389 68.0512 22.2575 68.1809 22.1954C68.3106 22.1334 68.4551 22.1023 68.6148 22.1023C68.7299 22.1023 68.8328 22.12 68.9238 22.1555C69.0146 22.191 69.0912 22.2398 69.1531 22.3018C69.2151 22.3638 69.2623 22.437 69.2945 22.5212C69.3265 22.6055 69.3426 22.6974 69.3426 22.7972C69.3426 22.8615 69.3349 22.928 69.3193 22.9967C69.3038 23.0654 69.2816 23.134 69.2528 23.2028H68.0331C68.0419 23.3092 68.0783 23.394 68.1426 23.4571Z" fill="#231F20"/>
<path d="M69.904 22.1354H70.4093L70.3129 22.4945C70.4038 22.3615 70.5029 22.26 70.6103 22.1903C70.7179 22.1205 70.8447 22.0911 70.991 22.1022L70.8482 22.6309H70.8215C70.6531 22.6309 70.5067 22.6819 70.3828 22.7837C70.2586 22.8859 70.1656 23.053 70.1035 23.2858L69.9341 23.9175H69.4287L69.904 22.1354Z" fill="#231F20"/>
</g>
<defs>
<clipPath id="clip0_2_1637">
<rect width="71" height="24.9358" fill="white"/>
</clipPath>
</defs>
</svg>
